<svg xmlns="http://www.w3.org/2000/svg" width="48" height="48" viewBox="230 225 580 580">
  <defs>
    <linearGradient id="gradient_0" gradientUnits="userSpaceOnUse" x1="500.83395" y1="751.32678" x2="534.42578"
      y2="248.69429">
      <stop offset="0" stop-color="#135326" />
      <stop offset="1" stop-color="#1B6E27" />
    </linearGradient>
  </defs>
  <path fill="url(#gradient_0)"
    d="M289.56 247.513L442.019 247.514C477.083 247.507 514.221 246.441 548.991 249.167C605.198 254.235 661.479 273.556 701.659 314.614C748.828 362.814 762.519 423.364 762.617 488.539C762.86 650.727 669.64 737.355 508.633 737.081L348.257 737.004C322.046 737.005 294.095 737.477 268.034 736.977C294.367 724.053 313.728 709.66 323.703 680.524C326.128 673.393 327.71 666.003 328.418 658.504C329.224 649.787 329.026 640.746 329.019 631.979L328.979 595.367L328.908 485.443C348.039 489.018 363.728 489.596 383.062 486.504C419.919 480.611 455.414 458.591 493.533 469.04C511.024 473.834 515.544 487.632 498.731 497.624C485.982 505.202 472.733 509.45 459.514 516.022C423.324 533.275 393.594 560.75 383.42 600.732C376.979 626.049 380.536 654.177 394.315 676.474C406.653 696.439 423.123 708.281 443.732 718.543C433.852 703.53 426.216 689.097 423.776 670.959C418.863 634.442 438.211 604.781 464.443 581.26C450.982 606.293 440.7 629.009 454.85 656.432C455.697 654.332 455.614 644.793 457.985 639.444C472.989 605.584 518.714 587.862 551.6 576.532C564.096 572.227 579.171 568.405 590.072 563.319C617.19 545.779 632.919 522.028 639.673 490.328C649.116 445.178 640.408 398.126 615.431 359.347C564.152 280.476 452.625 270.751 389.073 339.576C372.944 357.042 351.794 371.303 329.068 378.352C328.966 358.103 328.721 337.021 329.015 316.797C304.307 296.505 294.218 280.029 289.56 247.513Z" />
  <path fill="#5DAD2D"
    d="M590.072 563.319C590.406 563.325 590.919 563.349 591.215 563.263C629.395 552.078 679.955 533.956 705.952 502.659C707.591 529.048 703.626 536.276 696.768 559.528C691.568 567.84 672.895 586.599 664.846 592.31C680.606 586.343 693.656 579.156 705.975 567.559C695.816 610.778 667.626 640.519 630.981 663.886C629.119 665.074 623.393 668.074 622.707 669.709C622.527 669.817 622.346 669.925 622.166 670.034C579.338 686.644 481.377 701.964 454.85 656.432C455.697 654.332 455.614 644.793 457.985 639.444C472.989 605.584 518.714 587.862 551.6 576.532C564.096 572.227 579.171 568.405 590.072 563.319Z" />
  <path fill="white"
    d="M696.768 559.528C700.323 555.71 703.835 550 706.67 545.525C718.782 526.407 725.777 509.343 730.473 487.14C736.157 516.667 737.649 540.46 728.302 569.823C712.379 619.848 670.203 651.783 622.707 669.709C623.393 668.074 629.119 665.074 630.981 663.886C667.626 640.519 695.816 610.778 705.975 567.559C693.656 579.156 680.606 586.343 664.846 592.31C672.895 586.599 691.568 567.84 696.768 559.528Z" />
  <path fill="#F38508"
    d="M241.122 417.578C234.868 409.591 236.067 399.089 247.858 399.199C255.461 399.269 263.001 400.059 270.549 400.186C284.56 400.369 298.562 399.374 312.406 397.212C336.555 393.664 359.787 385.467 380.815 373.076C385.353 395.592 392.461 413.205 412.465 426.539C418.726 430.761 425.611 433.972 432.87 436.054C435.453 436.809 441.498 437.898 443.202 438.954L443.265 439.79L441.975 441.103C437.59 447.471 432.393 454.009 425.495 457.931C397.981 473.577 352.828 473.382 322.785 466.932C294.251 460.805 256.614 441.985 241.122 417.578Z" />
  <path fill="#E05801"
    d="M241.122 417.578C241.313 417.604 241.503 417.631 241.694 417.658C296.361 459.218 376.071 465.328 439.307 441.196C440.616 440.696 440.773 440.767 441.975 441.103C437.59 447.471 432.393 454.009 425.495 457.931C397.981 473.577 352.828 473.382 322.785 466.932C294.251 460.805 256.614 441.985 241.122 417.578Z" />
  <path fill="#712806"
    d="M367.248 396.876L368.166 397.111C375.196 411.706 349.578 414.367 340.955 415.15L339.57 414.917C340.364 414.029 347.405 411.261 349.584 409.98C356.205 406.087 361.059 401.105 367.248 396.876Z" />
  <path fill="#031423"
    d="M452.093 342.886C466.481 340.267 480.256 349.845 482.81 364.244C485.364 378.644 475.725 392.375 461.314 394.865C446.995 397.338 433.369 387.773 430.831 373.465C428.293 359.157 437.797 345.489 452.093 342.886Z" />
  <path fill="white"
    d="M448.569 351.949C452.856 350.988 457.122 353.637 458.163 357.905C459.204 362.173 456.636 366.489 452.389 367.61C449.569 368.354 446.567 367.518 444.539 365.422C442.51 363.327 441.772 360.299 442.608 357.505C443.443 354.711 445.723 352.586 448.569 351.949Z" />
</svg>